<?xml version="1.0" encoding="utf-8"?>
<!-- Generator: Adobe Illustrator 25.0.0, SVG Export Plug-In . SVG Version: 6.00 Build 0)  -->
<svg version="1.1" id="Layer_1" xmlns="http://www.w3.org/2000/svg" xmlns:xlink="http://www.w3.org/1999/xlink" x="0px" y="0px"
	 viewBox="0 0 26 20" style="enable-background:new 0 0 26 20;" xml:space="preserve">
<g>
	<polygon points="9.61,5.68 4.27,5.68 6.22,1.16 11.55,1.16 	"/>
</g>
<g>
	<polygon points="5.72,14.71 0.38,14.71 2.32,10.2 7.66,10.2 	"/>
</g>
<g>
	<polygon points="13,10.2 7.66,10.2 9.61,5.68 14.95,5.68 	"/>
</g>
<g>
	<polygon points="9.11,19.23 3.77,19.23 5.72,14.71 11.05,14.71 	"/>
</g>
<g>
	<polygon points="23.68,10.2 18.34,10.2 20.28,5.68 25.62,5.68 	"/>
</g>
<g>
	<polygon points="19.78,19.23 14.45,19.23 16.39,14.71 21.73,14.71 	"/>
</g>
<g>
	<polygon points="20.28,5.68 14.95,5.68 16.89,1.16 22.23,1.16 	"/>
</g>
<g>
	<polygon points="16.39,14.71 11.05,14.71 13,10.2 18.34,10.2 	"/>
</g>
</svg>
